<mxfile host="app.diagrams.net" agent="Mozilla/5.0 (Macintosh; Intel Mac OS X 10_15_7) AppleWebKit/537.36 (KHTML, like Gecko) Chrome/137.0.0.0 Safari/537.36" version="27.0.9">
  <diagram name="페이지-1" id="y5F_EbarfudFt1pbIAaI">
    <mxGraphModel dx="2204" dy="751" grid="1" gridSize="10" guides="1" tooltips="1" connect="1" arrows="1" fold="1" page="1" pageScale="1" pageWidth="827" pageHeight="1169" math="0" shadow="0">
      <root>
        <mxCell id="0" />
        <mxCell id="1" parent="0" />
        <mxCell id="O4iFIFkRlVeBVeCJzIus-2" value="Machine 0" style="rounded=0;whiteSpace=wrap;html=1;" parent="1" vertex="1">
          <mxGeometry x="40" y="280" width="120" height="60" as="geometry" />
        </mxCell>
        <mxCell id="O4iFIFkRlVeBVeCJzIus-6" value="Machine 1" style="rounded=0;whiteSpace=wrap;html=1;" parent="1" vertex="1">
          <mxGeometry x="40" y="350" width="120" height="60" as="geometry" />
        </mxCell>
        <mxCell id="O4iFIFkRlVeBVeCJzIus-7" value="Machine m-1" style="rounded=0;whiteSpace=wrap;html=1;" parent="1" vertex="1">
          <mxGeometry x="40" y="555" width="120" height="60" as="geometry" />
        </mxCell>
        <mxCell id="O4iFIFkRlVeBVeCJzIus-8" value="&lt;font style=&quot;font-size: 40px;&quot;&gt;.&lt;/font&gt;&lt;div style=&quot;font-size: 40px;&quot;&gt;&lt;font style=&quot;font-size: 40px;&quot;&gt;.&lt;/font&gt;&lt;/div&gt;&lt;div style=&quot;font-size: 40px;&quot;&gt;&lt;font style=&quot;font-size: 40px;&quot;&gt;.&lt;/font&gt;&lt;/div&gt;" style="text;html=1;align=center;verticalAlign=middle;whiteSpace=wrap;rounded=0;fontSize=40;" parent="1" vertex="1">
          <mxGeometry x="80" y="400" width="40" height="140" as="geometry" />
        </mxCell>
        <mxCell id="O4iFIFkRlVeBVeCJzIus-9" value="Job&lt;span style=&quot;background-color: initial;&quot;&gt;&amp;nbsp;0&lt;/span&gt;" style="rounded=0;whiteSpace=wrap;html=1;" parent="1" vertex="1">
          <mxGeometry x="360" y="280" width="120" height="60" as="geometry" />
        </mxCell>
        <mxCell id="O4iFIFkRlVeBVeCJzIus-10" value="Job 1" style="rounded=0;whiteSpace=wrap;html=1;" parent="1" vertex="1">
          <mxGeometry x="360" y="350" width="120" height="60" as="geometry" />
        </mxCell>
        <mxCell id="O4iFIFkRlVeBVeCJzIus-11" value="Job n-1" style="rounded=0;whiteSpace=wrap;html=1;" parent="1" vertex="1">
          <mxGeometry x="360" y="555" width="120" height="60" as="geometry" />
        </mxCell>
        <mxCell id="O4iFIFkRlVeBVeCJzIus-12" value="&lt;font style=&quot;font-size: 40px;&quot;&gt;.&lt;/font&gt;&lt;div style=&quot;font-size: 40px;&quot;&gt;&lt;font style=&quot;font-size: 40px;&quot;&gt;.&lt;/font&gt;&lt;/div&gt;&lt;div style=&quot;font-size: 40px;&quot;&gt;&lt;font style=&quot;font-size: 40px;&quot;&gt;.&lt;/font&gt;&lt;/div&gt;" style="text;html=1;align=center;verticalAlign=middle;whiteSpace=wrap;rounded=0;fontSize=40;" parent="1" vertex="1">
          <mxGeometry x="400" y="400" width="40" height="140" as="geometry" />
        </mxCell>
        <mxCell id="O4iFIFkRlVeBVeCJzIus-21" value="Job&lt;span style=&quot;background-color: initial;&quot;&gt;&amp;nbsp;0&lt;/span&gt;" style="rounded=0;whiteSpace=wrap;html=1;" parent="1" vertex="1">
          <mxGeometry x="500" y="280" width="120" height="60" as="geometry" />
        </mxCell>
        <mxCell id="O4iFIFkRlVeBVeCJzIus-22" value="Job 1" style="rounded=0;whiteSpace=wrap;html=1;" parent="1" vertex="1">
          <mxGeometry x="500" y="350" width="120" height="60" as="geometry" />
        </mxCell>
        <mxCell id="O4iFIFkRlVeBVeCJzIus-23" value="Job n-1" style="rounded=0;whiteSpace=wrap;html=1;" parent="1" vertex="1">
          <mxGeometry x="500" y="555" width="120" height="60" as="geometry" />
        </mxCell>
        <mxCell id="O4iFIFkRlVeBVeCJzIus-24" value="&lt;font style=&quot;font-size: 40px;&quot;&gt;.&lt;/font&gt;&lt;div style=&quot;font-size: 40px;&quot;&gt;&lt;font style=&quot;font-size: 40px;&quot;&gt;.&lt;/font&gt;&lt;/div&gt;&lt;div style=&quot;font-size: 40px;&quot;&gt;&lt;font style=&quot;font-size: 40px;&quot;&gt;.&lt;/font&gt;&lt;/div&gt;" style="text;html=1;align=center;verticalAlign=middle;whiteSpace=wrap;rounded=0;fontSize=40;" parent="1" vertex="1">
          <mxGeometry x="540" y="400" width="40" height="140" as="geometry" />
        </mxCell>
        <mxCell id="O4iFIFkRlVeBVeCJzIus-26" value="Job 1" style="rounded=0;whiteSpace=wrap;html=1;" parent="1" vertex="1">
          <mxGeometry x="630" y="350" width="120" height="60" as="geometry" />
        </mxCell>
        <mxCell id="O4iFIFkRlVeBVeCJzIus-33" value="" style="endArrow=classic;html=1;rounded=0;" parent="1" edge="1">
          <mxGeometry width="50" height="50" relative="1" as="geometry">
            <mxPoint x="350" y="590" as="sourcePoint" />
            <mxPoint x="170" y="320" as="targetPoint" />
          </mxGeometry>
        </mxCell>
        <mxCell id="O4iFIFkRlVeBVeCJzIus-34" value="" style="endArrow=classic;html=1;rounded=0;" parent="1" edge="1">
          <mxGeometry width="50" height="50" relative="1" as="geometry">
            <mxPoint x="350" y="310" as="sourcePoint" />
            <mxPoint x="170" y="580" as="targetPoint" />
          </mxGeometry>
        </mxCell>
        <mxCell id="O4iFIFkRlVeBVeCJzIus-35" value="" style="endArrow=classic;html=1;rounded=0;" parent="1" edge="1">
          <mxGeometry width="50" height="50" relative="1" as="geometry">
            <mxPoint x="350" y="380" as="sourcePoint" />
            <mxPoint x="160" y="460" as="targetPoint" />
          </mxGeometry>
        </mxCell>
        <mxCell id="O4iFIFkRlVeBVeCJzIus-36" value="&lt;span style=&quot;font-size: 40px;&quot;&gt;m x n&lt;/span&gt;" style="text;html=1;align=center;verticalAlign=middle;whiteSpace=wrap;rounded=0;" parent="1" vertex="1">
          <mxGeometry x="190" y="460" width="150" height="30" as="geometry" />
        </mxCell>
        <mxCell id="3z7ieTu_SoPUE1_PNKwx-12" value="" style="group" parent="1" vertex="1" connectable="0">
          <mxGeometry x="581.5" y="1060" width="180" height="120" as="geometry" />
        </mxCell>
        <mxCell id="3z7ieTu_SoPUE1_PNKwx-13" value="" style="shape=image;verticalLabelPosition=bottom;labelBackgroundColor=default;verticalAlign=top;aspect=fixed;imageAspect=0;image=data:image/png,iVBORw0KGgoAAAANSUhEUgAAAT4AAACfCAMAAABX0UX9AAAAflBMVEX///8AAAB0dHQ6OjqJiYmAgICoqKiQkJDT09PBwcF9fX3ExMR3d3d6enptbW319fXt7e3m5uYpKSkLCwv4+PixsbHKysrf39+bm5tERES7u7tbW1vq6uqjo6OGhoY0NDRNTU0VFRUlJSUcHBxoaGg+Pj6Xl5dSUlJgYGAYGBjpHaZbAAAHFklEQVR4nO2aiXaiShCGKSUsGkWRfRF3nfd/wcvSS6Ekc8drRnPzf+cktgh081PVVdVgGAAAAAAAAAAAAAAAAAAAAAAAAAAAAAAAAAAAAAAAAAAAAAAAAAAAAAAAAAAAAAD8BQIvkE3Pe+ZAviGF6VfjyjcLw3Bzfzz2N+Gzh/SNmFRuY3qBm76nb3GzpbBX0ZMH9W3wS9lK0t1CNL1x+cHuoEc1lS1zbhRUyG+b7Dnj+V4ktmxl5/rfcqV+oc9CyMJxXSf4ZIcvJF78fp+/BclG0LXCmdyQrT86JjitiLb13zn+0rEN4xA96b7d4pqy9SactVLuu7rdvSUkP2wNIJ6Q+cE+X0hG9DLmZ6uZbys+3Te5JR323hnpWXG5Sr9oYJ9Qvs6sPJHul6k5cC8bh+XQEWviHhtYXzOub8JoZFtO03h35Ka8US1wE9t3Bg6IaGjrz+S0GuWONV/VOd5ReeopM5b5znan+8PuNjTQhwHlx1GdRORNyBmrrVliVo2FWYmx2F1Xb9nrRL1nkzZTcHZoml76S22eUltweK2w1VXxlr4PnCg4FfzrMmlP09yCsCKSVU3TrthUmTT2ntQbad2LUdml3rQ78S2beouuw0MxfXgndisjGU+iZsThmPU77vf7IESGd2gvVgcMw+2CyKpzXOod49FgLVy98W+zvPn/ZhvL7ThbxhZt6q/Fr9Rt2jpS1wVORBc3jqcbFo3K+lKdZZztV0qbI1nxMg73JASUuix4AmMeRGO9Nop9lcWir8Xu2ParvetBSGHy9trT6Tqt7/H+EJ6a+1hIncpe7RsNlyJuT2Rqk6G17YgMJyC7znVd0VaZIi0SGYZmKsWknYxMx41oHOSdtSbd51iY0oIPxp6LhmnGQuemLz2G3h3+7ziyP+O0j70JzaJ2MLHl11VwSTJpCXb8oKRvjAqWCtYStx9mqs4xpUi1tdJ09pWBCXHrg9VpFsIkl3Qdv34jX6oOiFi/0YMn7URfcUG/Ip2LjpfvNNP79eRbH4dPZrLsedRNjybptJH0SoSh3J82+pg561By7GaV8OaOfS6f3euXtV3jkehEz9vVDhrn4ltRK7Hc64h74Td/fhk+WcGmIeGRa+YtG5btpHI24FZVDkxNZtfXn8pnTvTGnN2VczI89DuZy9Evuuv1xVjsVrmN6uzA5TscjGFSVbRMxeWu2dBHTMqDnPx4/u3qyKWwOkuPb/L038jHcoPZiI2ByfoAVLUrrCAUlyWuXuUJvcp3nqvmiDo6p58qGzkIS+PyzZh86jK4LNOB5YnEFye81u/fy/fG5Juw9gOQay0bKeO29T9TZkgrMW30fMfUTuYVixpPTil6ShPW+h/kW2RvTRYg+5rQpSfgS8gndHGVOzpV88+XX+Oq/eiv+pU3E5GUzxZ2mck97pUvKPd0TqLCyPRQDrRiee9ryGe3c/hWD6E81CFAfz209tRP9G7zPimfvJZclgt3ypfQWdhx6OvfvXJLMxmdXkM+o4nqDo8F9sFn1Vcbi0f9J0a3VYfKB7pgE6hU4T75Ljoec/lqIl929SLyNYmpOWUbMurFidoNJ/OrY47XNa+Srwse2uPuks9iilzJ16zTdke8iHyGt7U2OhePz3PD2bLsaOQeb9biw+vkXWej7cWdlbXeJR8xY7+Rzzh2rqLlY77yBPnqeo2SztkWYXpuhmtdtjPhn1E6tF56/XRDy3eaN76rDOIe+TyeSt/KV3bZoZQv4HufniGfsXVzGqfH1SYpjGa4YWhEk90uTXe+ORsqc7KrElTL16xwhbp4u0e+xefyWX35eB0WrKQ6f1W+doji9aCmXXbZcvuakD24ODWi3uIeu4TcMtjLMfc5rz6bI/I+Nr9dOgtT8l20IvvqKfLl7HFQk+jxUJIPPioycmL7vLGiPCKDzYx3yTdX1mvTpE08HVJ3JBK2qeSLZKW9IKt8ivNabK5u5NqwFcgPFqfqK9u07xQZ8Yl4pmNQzlYUuHzvrN4clk/05dG5fVAVUm5E3VpPSOPOCywZV5R89Z1szhFYtcSlzMD+qnzeVrcbKdnyVPbhI/DlrFlYrf/S/hPXki8K2axcWbNTTeR2Ll8k5znvXBdre9rUv8nHL4FNtBv7tJNzCZ8h6r19SmvJQ6mOzSydr76sH7tkIM+qzc/bGyXLWz5dX1xG7jS+3iH+yF7/BC/KouvSpojcqBjcO3Cy6KnvHOy0EdgmC3bpny8vnq6T7B9AsFdTyYLU8y1vfMezqeHnSP933qusccPFaRsf8ja4Lc3tHe8SOI/w3W9IYVc1aTMjO5fm3ebzXS/hpD/4hVQdBu59sz77ocb3GBy8O3QvlpXN6XXeuvtu2Dt/NFzhAQAAAAAAAAAAAAAAAAAAAAAAAAAAAAAAAAAAAAAAAAAAAAAAAAAAAAAAAADgD/gHsQ1aksabXB0AAAAASUVORK5CYII=;" parent="3z7ieTu_SoPUE1_PNKwx-12" vertex="1">
          <mxGeometry width="180" height="90" as="geometry" />
        </mxCell>
        <mxCell id="3z7ieTu_SoPUE1_PNKwx-14" value="RJSPEnv" style="text;html=1;align=center;verticalAlign=middle;whiteSpace=wrap;rounded=0;fontSize=15;" parent="3z7ieTu_SoPUE1_PNKwx-12" vertex="1">
          <mxGeometry x="60" y="90" width="60" height="30" as="geometry" />
        </mxCell>
        <mxCell id="3z7ieTu_SoPUE1_PNKwx-15" value="" style="group" parent="1" vertex="1" connectable="0">
          <mxGeometry x="847.23" y="1034" width="160.58999999999992" height="170" as="geometry" />
        </mxCell>
        <mxCell id="3z7ieTu_SoPUE1_PNKwx-16" value="" style="shape=image;verticalLabelPosition=bottom;labelBackgroundColor=default;verticalAlign=top;aspect=fixed;imageAspect=0;image=https://stable-baselines3.readthedocs.io/en/master/_static/logo.png;" parent="3z7ieTu_SoPUE1_PNKwx-15" vertex="1">
          <mxGeometry width="160.59" height="140" as="geometry" />
        </mxCell>
        <mxCell id="3z7ieTu_SoPUE1_PNKwx-17" value="Stable-Baselines3&lt;div style=&quot;font-size: 15px;&quot;&gt;Agent&lt;/div&gt;" style="text;html=1;align=center;verticalAlign=middle;whiteSpace=wrap;rounded=0;fontSize=15;" parent="3z7ieTu_SoPUE1_PNKwx-15" vertex="1">
          <mxGeometry x="5.510000000000105" y="140" width="149.56" height="30" as="geometry" />
        </mxCell>
        <mxCell id="3z7ieTu_SoPUE1_PNKwx-31" value="" style="group" parent="1" vertex="1" connectable="0">
          <mxGeometry x="567.23" y="1240" width="208.55" height="130" as="geometry" />
        </mxCell>
        <mxCell id="3z7ieTu_SoPUE1_PNKwx-26" value="" style="shape=image;verticalLabelPosition=bottom;labelBackgroundColor=default;verticalAlign=top;aspect=fixed;imageAspect=0;image=https://streamlit.io/images/brand/streamlit-logo-secondary-colormark-darktext.png;" parent="3z7ieTu_SoPUE1_PNKwx-31" vertex="1">
          <mxGeometry width="208.55" height="122" as="geometry" />
        </mxCell>
        <mxCell id="3z7ieTu_SoPUE1_PNKwx-30" value="RJSP-GUI" style="text;html=1;align=center;verticalAlign=middle;whiteSpace=wrap;rounded=0;fontSize=15;" parent="3z7ieTu_SoPUE1_PNKwx-31" vertex="1">
          <mxGeometry x="62.610000000000014" y="116" width="83.33" height="30" as="geometry" />
        </mxCell>
        <mxCell id="3z7ieTu_SoPUE1_PNKwx-34" value="" style="group" parent="1" vertex="1" connectable="0">
          <mxGeometry x="417.23" y="1272" width="60" height="90" as="geometry" />
        </mxCell>
        <mxCell id="3z7ieTu_SoPUE1_PNKwx-32" value="" style="points=[];aspect=fixed;html=1;align=center;shadow=0;dashed=0;fillColor=#FF6A00;strokeColor=none;shape=mxgraph.alibaba_cloud.user;" parent="3z7ieTu_SoPUE1_PNKwx-34" vertex="1">
          <mxGeometry width="60" height="60" as="geometry" />
        </mxCell>
        <mxCell id="3z7ieTu_SoPUE1_PNKwx-33" value="User" style="text;html=1;align=center;verticalAlign=middle;whiteSpace=wrap;rounded=0;fontSize=15;" parent="3z7ieTu_SoPUE1_PNKwx-34" vertex="1">
          <mxGeometry y="60" width="60" height="30" as="geometry" />
        </mxCell>
        <mxCell id="3z7ieTu_SoPUE1_PNKwx-36" value="" style="endArrow=classic;startArrow=classic;html=1;rounded=0;" parent="1" target="3z7ieTu_SoPUE1_PNKwx-26" edge="1">
          <mxGeometry width="50" height="50" relative="1" as="geometry">
            <mxPoint x="487.23" y="1302" as="sourcePoint" />
            <mxPoint x="767.23" y="1120" as="targetPoint" />
          </mxGeometry>
        </mxCell>
        <mxCell id="3z7ieTu_SoPUE1_PNKwx-37" value="" style="endArrow=classic;startArrow=classic;html=1;rounded=0;" parent="1" source="3z7ieTu_SoPUE1_PNKwx-14" target="3z7ieTu_SoPUE1_PNKwx-26" edge="1">
          <mxGeometry width="50" height="50" relative="1" as="geometry">
            <mxPoint x="547.23" y="1330" as="sourcePoint" />
            <mxPoint x="627.23" y="1330" as="targetPoint" />
          </mxGeometry>
        </mxCell>
        <mxCell id="3z7ieTu_SoPUE1_PNKwx-38" value="" style="endArrow=classic;startArrow=classic;html=1;rounded=0;exitX=1;exitY=0.5;exitDx=0;exitDy=0;" parent="1" source="3z7ieTu_SoPUE1_PNKwx-13" target="3z7ieTu_SoPUE1_PNKwx-16" edge="1">
          <mxGeometry width="50" height="50" relative="1" as="geometry">
            <mxPoint x="737.23" y="1200" as="sourcePoint" />
            <mxPoint x="737.23" y="1270" as="targetPoint" />
          </mxGeometry>
        </mxCell>
        <UserObject label="&lt;b style=&quot;font-weight:normal;&quot; id=&quot;docs-internal-guid-8df76e3a-7fff-ebb2-dd0c-625dde105723&quot;&gt;&lt;span style=&quot;font-size:11pt;font-family:&#39;Malgun Gothic&#39;;color:#000000;background-color:transparent;font-weight:400;font-style:normal;font-variant:normal;text-decoration:none;vertical-align:baseline;white-space:pre;white-space:pre-wrap;&quot;&gt;&lt;span style=&quot;border:none;display:inline-block;overflow:hidden;width:602px;height:287px;&quot;&gt;&lt;img src=&quot;https://lh7-rt.googleusercontent.com/docsz/AD_4nXd--IWXKFfpI1MnvntklBOlnOQTH_4OBAKM9-oON2DKayPc84mdJArtfKoUvql13N8prD0Xn28YUCTR8OmbgoLxctuCVxXdDMd5vjaYJhw4qWpKeq7rWgEYyfhThJOWtrlsLn2mtA?key=DaP1iS0P0P4BMe73CD97_w&quot; width=&quot;602&quot; height=&quot;287&quot; style=&quot;margin-left:0px;margin-top:0px;&quot;&gt;&lt;/span&gt;&lt;/span&gt;&lt;/b&gt;" link="&lt;b style=&quot;font-weight:normal;&quot; id=&quot;docs-internal-guid-8df76e3a-7fff-ebb2-dd0c-625dde105723&quot;&gt;&lt;span style=&quot;font-size:11pt;font-family:&#39;Malgun Gothic&#39;;color:#000000;background-color:transparent;font-weight:400;font-style:normal;font-variant:normal;text-decoration:none;vertical-align:baseline;white-space:pre;white-space:pre-wrap;&quot;&gt;&lt;span style=&quot;border:none;display:inline-block;overflow:hidden;width:602px;height:287px;&quot;&gt;&lt;img src=&quot;https://lh7-rt.googleusercontent.com/docsz/AD_4nXd--IWXKFfpI1MnvntklBOlnOQTH_4OBAKM9-oON2DKayPc84mdJArtfKoUvql13N8prD0Xn28YUCTR8OmbgoLxctuCVxXdDMd5vjaYJhw4qWpKeq7rWgEYyfhThJOWtrlsLn2mtA?key=DaP1iS0P0P4BMe73CD97_w&quot; width=&quot;602&quot; height=&quot;287&quot; style=&quot;margin-left:0px;margin-top:0px;&quot;&gt;&lt;/span&gt;&lt;/span&gt;&lt;/b&gt;" id="3z7ieTu_SoPUE1_PNKwx-39">
          <mxCell style="text;whiteSpace=wrap;html=1;" parent="1" vertex="1">
            <mxGeometry x="-600" y="830" width="560" height="310" as="geometry" />
          </mxCell>
        </UserObject>
        <mxCell id="3z7ieTu_SoPUE1_PNKwx-40" value="" style="rounded=1;whiteSpace=wrap;html=1;" parent="1" vertex="1">
          <mxGeometry x="50" y="1100" width="70" height="30" as="geometry" />
        </mxCell>
        <mxCell id="3z7ieTu_SoPUE1_PNKwx-43" value="" style="group" parent="1" vertex="1" connectable="0">
          <mxGeometry x="414.23" y="1065.5" width="80" height="109" as="geometry" />
        </mxCell>
        <mxCell id="3z7ieTu_SoPUE1_PNKwx-41" value="" style="shape=mxgraph.sap.icon;labelPosition=center;verticalLabelPosition=bottom;align=center;verticalAlign=top;strokeWidth=1;strokeColor=#D5DADD;fillColor=#EDEFF0;gradientColor=#FCFCFC;gradientDirection=west;aspect=fixed;SAPIcon=SAP_Job_Scheduling_service" parent="3z7ieTu_SoPUE1_PNKwx-43" vertex="1">
          <mxGeometry width="80" height="80" as="geometry" />
        </mxCell>
        <mxCell id="3z7ieTu_SoPUE1_PNKwx-42" value="Scheduler" style="text;html=1;align=center;verticalAlign=middle;whiteSpace=wrap;rounded=0;fontSize=15;" parent="3z7ieTu_SoPUE1_PNKwx-43" vertex="1">
          <mxGeometry x="10" y="79" width="60" height="30" as="geometry" />
        </mxCell>
        <mxCell id="3z7ieTu_SoPUE1_PNKwx-44" value="" style="endArrow=classic;startArrow=classic;html=1;rounded=0;" parent="1" edge="1">
          <mxGeometry width="50" height="50" relative="1" as="geometry">
            <mxPoint x="505.23" y="1120" as="sourcePoint" />
            <mxPoint x="565.23" y="1120" as="targetPoint" />
          </mxGeometry>
        </mxCell>
        <mxCell id="3z7ieTu_SoPUE1_PNKwx-45" value="" style="shape=image;verticalLabelPosition=bottom;labelBackgroundColor=default;verticalAlign=top;aspect=fixed;imageAspect=0;editableCssRules=.*;image=data:image/svg+xml,PHN2ZyB4bWxucz0iaHR0cDovL3d3dy53My5vcmcvMjAwMC9zdmciIHZpZXdCb3g9IjAgMCAzODQgNTEyIiB3aWR0aD0iMzg0IiBoZWlnaHQ9IjUxMiI+PHBhdGggZD0iTTY0IDBDMjguNyAwIDAgMjguNyAwIDY0TDAgNDQ4YzAgMzUuMyAyOC43IDY0IDY0IDY0bDI1NiAwYzM1LjMgMCA2NC0yOC43IDY0LTY0bDAtMjg4LTEyOCAwYy0xNy43IDAtMzItMTQuMy0zMi0zMkwyMjQgMCA2NCAwek0yNTYgMGwwIDEyOCAxMjggMEwyNTYgMHpNODAgNjRsNjQgMGM4LjggMCAxNiA3LjIgMTYgMTZzLTcuMiAxNi0xNiAxNkw4MCA5NmMtOC44IDAtMTYtNy4yLTE2LTE2czcuMi0xNiAxNi0xNnptMCA2NGw2NCAwYzguOCAwIDE2IDcuMiAxNiAxNnMtNy4yIDE2LTE2IDE2bC02NCAwYy04LjggMC0xNi03LjItMTYtMTZzNy4yLTE2IDE2LTE2em01NC4yIDI1My44Yy02LjEgMjAuMy0yNC44IDM0LjItNDYgMzQuMkw4MCA0MTZjLTguOCAwLTE2LTcuMi0xNi0xNnM3LjItMTYgMTYtMTZsOC4yIDBjNy4xIDAgMTMuMy00LjYgMTUuMy0xMS40bDE0LjktNDkuNWMzLjQtMTEuMyAxMy44LTE5LjEgMjUuNi0xOS4xczIyLjIgNy43IDI1LjYgMTkuMWwxMS42IDM4LjZjNy40LTYuMiAxNi44LTkuNyAyNi44LTkuN2MxNS45IDAgMzAuNCA5IDM3LjUgMjMuMmw0LjQgOC44IDU0LjEgMGM4LjggMCAxNiA3LjIgMTYgMTZzLTcuMiAxNi0xNiAxNmwtNjQgMGMtNi4xIDAtMTEuNi0zLjQtMTQuMy04LjhsLTguOC0xNy43Yy0xLjctMy40LTUuMS01LjUtOC44LTUuNXMtNy4yIDIuMS04LjggNS41bC04LjggMTcuN2MtMi45IDUuOS05LjIgOS40LTE1LjcgOC44cy0xMi4xLTUuMS0xMy45LTExLjNMMTQ0IDM0OWwtOS44IDMyLjh6Ii8+PC9zdmc+;" parent="1" vertex="1">
          <mxGeometry x="444.38" y="922" width="31.5" height="42" as="geometry" />
        </mxCell>
        <mxCell id="3z7ieTu_SoPUE1_PNKwx-46" value="Contract&lt;div&gt;Generator&lt;/div&gt;" style="text;html=1;align=center;verticalAlign=middle;whiteSpace=wrap;rounded=0;fontSize=15;" parent="1" vertex="1">
          <mxGeometry x="390" y="972" width="140.25" height="26" as="geometry" />
        </mxCell>
        <mxCell id="3z7ieTu_SoPUE1_PNKwx-47" value="" style="shape=image;verticalLabelPosition=bottom;labelBackgroundColor=default;verticalAlign=top;aspect=fixed;imageAspect=0;editableCssRules=.*;image=data:image/svg+xml,PHN2ZyB4bWxucz0iaHR0cDovL3d3dy53My5vcmcvMjAwMC9zdmciIHZpZXdCb3g9IjAgNjQgNjQwIDM4NCIgd2lkdGg9IjY0MCIgaGVpZ2h0PSIzODQiPjxwYXRoIGQ9Ik0xOTIgNjRDODYgNjQgMCAxNTAgMCAyNTZTODYgNDQ4IDE5MiA0NDhsMjU2IDBjMTA2IDAgMTkyLTg2IDE5Mi0xOTJzLTg2LTE5Mi0xOTItMTkyTDE5MiA2NHpNNDk2IDE2OGE0MCA0MCAwIDEgMSAwIDgwIDQwIDQwIDAgMSAxIDAtODB6TTM5MiAzMDRhNDAgNDAgMCAxIDEgODAgMCA0MCA0MCAwIDEgMSAtODAgMHpNMTY4IDIwMGMwLTEzLjMgMTAuNy0yNCAyNC0yNHMyNCAxMC43IDI0IDI0bDAgMzIgMzIgMGMxMy4zIDAgMjQgMTAuNyAyNCAyNHMtMTAuNyAyNC0yNCAyNGwtMzIgMCAwIDMyYzAgMTMuMy0xMC43IDI0LTI0IDI0cy0yNC0xMC43LTI0LTI0bDAtMzItMzIgMGMtMTMuMyAwLTI0LTEwLjctMjQtMjRzMTAuNy0yNCAyNC0yNGwzMiAwIDAtMzJ6Ii8+PC9zdmc+;" parent="1" vertex="1">
          <mxGeometry x="535" y="931" width="60" height="36" as="geometry" />
        </mxCell>
        <mxCell id="3z7ieTu_SoPUE1_PNKwx-48" value="Action&lt;div&gt;Handler&lt;/div&gt;" style="text;html=1;align=center;verticalAlign=middle;whiteSpace=wrap;rounded=0;fontSize=15;" parent="1" vertex="1">
          <mxGeometry x="510" y="978" width="110" height="20" as="geometry" />
        </mxCell>
        <mxCell id="3z7ieTu_SoPUE1_PNKwx-50" value="" style="shape=image;verticalLabelPosition=bottom;labelBackgroundColor=default;verticalAlign=top;aspect=fixed;imageAspect=0;editableCssRules=.*;image=data:image/svg+xml,PHN2ZyB4bWxucz0iaHR0cDovL3d3dy53My5vcmcvMjAwMC9zdmciIHZpZXdCb3g9IjAuMDI1MDAwMDk1MzY3NDMxNjQgMzIgNTc2LjA0OTkyNjc1NzgxMjUgNDQ4IiB3aWR0aD0iNTc2LjA0OTkyNjc1NzgxMjUiIGhlaWdodD0iNDQ4Ij48cGF0aCBkPSJNMjg4IDMyYy04MC44IDAtMTQ1LjUgMzYuOC0xOTIuNiA4MC42QzQ4LjYgMTU2IDE3LjMgMjA4IDIuNSAyNDMuN2MtMy4zIDcuOS0zLjMgMTYuNyAwIDI0LjZDMTcuMyAzMDQgNDguNiAzNTYgOTUuNCAzOTkuNEMxNDIuNSA0NDMuMiAyMDcuMiA0ODAgMjg4IDQ4MHMxNDUuNS0zNi44IDE5Mi42LTgwLjZjNDYuOC00My41IDc4LjEtOTUuNCA5My0xMzEuMWMzLjMtNy45IDMuMy0xNi43IDAtMjQuNmMtMTQuOS0zNS43LTQ2LjItODcuNy05My0xMzEuMUM0MzMuNSA2OC44IDM2OC44IDMyIDI4OCAzMnpNMTQ0IDI1NmExNDQgMTQ0IDAgMSAxIDI4OCAwIDE0NCAxNDQgMCAxIDEgLTI4OCAwem0xNDQtNjRjMCAzNS4zLTI4LjcgNjQtNjQgNjRjLTcuMSAwLTEzLjktMS4yLTIwLjMtMy4zYy01LjUtMS44LTExLjkgMS42LTExLjcgNy40Yy4zIDYuOSAxLjMgMTMuOCAzLjIgMjAuN2MxMy43IDUxLjIgNjYuNCA4MS42IDExNy42IDY3LjlzODEuNi02Ni40IDY3LjktMTE3LjZjLTExLjEtNDEuNS00Ny44LTY5LjQtODguNi03MS4xYy01LjgtLjItOS4yIDYuMS03LjQgMTEuN2MyLjEgNi40IDMuMyAxMy4yIDMuMyAyMC4zeiIvPjwvc3ZnPg==;" parent="1" vertex="1">
          <mxGeometry x="641.6899999999999" y="933" width="43.71" height="34" as="geometry" />
        </mxCell>
        <mxCell id="3z7ieTu_SoPUE1_PNKwx-51" value="Observation&lt;div&gt;Handler&lt;/div&gt;" style="text;html=1;align=center;verticalAlign=middle;whiteSpace=wrap;rounded=0;fontSize=15;" parent="1" vertex="1">
          <mxGeometry x="588.55" y="975" width="150" height="20" as="geometry" />
        </mxCell>
        <mxCell id="3z7ieTu_SoPUE1_PNKwx-52" value="" style="shape=image;verticalLabelPosition=bottom;labelBackgroundColor=default;verticalAlign=top;aspect=fixed;imageAspect=0;editableCssRules=.*;image=data:image/svg+xml,PHN2ZyB4bWxucz0iaHR0cDovL3d3dy53My5vcmcvMjAwMC9zdmciIHZpZXdCb3g9IjAgMCA1NzYgNTEyIiB3aWR0aD0iNTc2IiBoZWlnaHQ9IjUxMiI+PHBhdGggZD0iTTQwMCAwTDE3NiAwYy0yNi41IDAtNDguMSAyMS44LTQ3LjEgNDguMmMuMiA1LjMgLjQgMTAuNiAuNyAxNS44TDI0IDY0QzEwLjcgNjQgMCA3NC43IDAgODhjMCA5Mi42IDMzLjUgMTU3IDc4LjUgMjAwLjdjNDQuMyA0My4xIDk4LjMgNjQuOCAxMzguMSA3NS44YzIzLjQgNi41IDM5LjQgMjYgMzkuNCA0NS42YzAgMjAuOS0xNyAzNy45LTM3LjkgMzcuOUwxOTIgNDQ4Yy0xNy43IDAtMzIgMTQuMy0zMiAzMnMxNC4zIDMyIDMyIDMybDE5MiAwYzE3LjcgMCAzMi0xNC4zIDMyLTMycy0xNC4zLTMyLTMyLTMybC0yNi4xIDBDMzM3IDQ0OCAzMjAgNDMxIDMyMCA0MTAuMWMwLTE5LjYgMTUuOS0zOS4yIDM5LjQtNDUuNmMzOS45LTExIDkzLjktMzIuNyAxMzguMi03NS44QzU0Mi41IDI0NSA1NzYgMTgwLjYgNTc2IDg4YzAtMTMuMy0xMC43LTI0LTI0LTI0TDQ0Ni40IDY0Yy4zLTUuMiAuNS0xMC40IC43LTE1LjhDNDQ4LjEgMjEuOCA0MjYuNSAwIDQwMCAwek00OC45IDExMmw4NC40IDBjOS4xIDkwLjEgMjkuMiAxNTAuMyA1MS45IDE5MC42Yy0yNC45LTExLTUwLjgtMjYuNS03My4yLTQ4LjNjLTMyLTMxLjEtNTgtNzYtNjMtMTQyLjN6TTQ2NC4xIDI1NC4zYy0yMi40IDIxLjgtNDguMyAzNy4zLTczLjIgNDguM2MyMi43LTQwLjMgNDIuOC0xMDAuNSA1MS45LTE5MC42bDg0LjQgMGMtNS4xIDY2LjMtMzEuMSAxMTEuMi02MyAxNDIuM3oiLz48L3N2Zz4=;" parent="1" vertex="1">
          <mxGeometry x="735.75" y="920" width="58.5" height="52" as="geometry" />
        </mxCell>
        <mxCell id="3z7ieTu_SoPUE1_PNKwx-53" value="Reward&lt;div&gt;Handler&lt;/div&gt;" style="text;html=1;align=center;verticalAlign=middle;whiteSpace=wrap;rounded=0;fontSize=15;" parent="1" vertex="1">
          <mxGeometry x="690" y="978" width="150" height="20" as="geometry" />
        </mxCell>
        <mxCell id="3z7ieTu_SoPUE1_PNKwx-54" value="" style="shape=image;verticalLabelPosition=bottom;labelBackgroundColor=default;verticalAlign=top;aspect=fixed;imageAspect=0;editableCssRules=.*;image=data:image/svg+xml,PHN2ZyB4bWxucz0iaHR0cDovL3d3dy53My5vcmcvMjAwMC9zdmciIHZpZXdCb3g9IjAgMzIgNTEyIDQ0OCIgd2lkdGg9IjUxMiIgaGVpZ2h0PSI0NDgiPjxwYXRoIGQ9Ik0zMiAzMmMxNy43IDAgMzIgMTQuMyAzMiAzMmwwIDMzNmMwIDguOCA3LjIgMTYgMTYgMTZsNDAwIDBjMTcuNyAwIDMyIDE0LjMgMzIgMzJzLTE0LjMgMzItMzIgMzJMODAgNDgwYy00NC4yIDAtODAtMzUuOC04MC04MEwwIDY0QzAgNDYuMyAxNC4zIDMyIDMyIDMyem05NiA5NmMwLTE3LjcgMTQuMy0zMiAzMi0zMmw5NiAwYzE3LjcgMCAzMiAxNC4zIDMyIDMycy0xNC4zIDMyLTMyIDMybC05NiAwYy0xNy43IDAtMzItMTQuMy0zMi0zMnptOTYgNjRsMTI4IDBjMTcuNyAwIDMyIDE0LjMgMzIgMzJzLTE0LjMgMzItMzIgMzJsLTEyOCAwYy0xNy43IDAtMzItMTQuMy0zMi0zMnMxNC4zLTMyIDMyLTMyem0xNjAgOTZsNjQgMGMxNy43IDAgMzIgMTQuMyAzMiAzMnMtMTQuMyAzMi0zMiAzMmwtNjQgMGMtMTcuNyAwLTMyLTE0LjMtMzItMzJzMTQuMy0zMiAzMi0zMnoiLz48L3N2Zz4=;" parent="1" vertex="1">
          <mxGeometry x="850" y="924.5" width="56" height="49" as="geometry" />
        </mxCell>
        <mxCell id="3z7ieTu_SoPUE1_PNKwx-55" value="Renderer" style="text;html=1;align=center;verticalAlign=middle;whiteSpace=wrap;rounded=0;fontSize=15;" parent="1" vertex="1">
          <mxGeometry x="803" y="978" width="150" height="20" as="geometry" />
        </mxCell>
        <mxCell id="3z7ieTu_SoPUE1_PNKwx-57" value="" style="endArrow=classic;startArrow=classic;html=1;rounded=0;" parent="1" edge="1">
          <mxGeometry width="50" height="50" relative="1" as="geometry">
            <mxPoint x="667.23" y="1050" as="sourcePoint" />
            <mxPoint x="457.23" y="1010" as="targetPoint" />
            <Array as="points">
              <mxPoint x="667.23" y="1030" />
              <mxPoint x="457.23" y="1030" />
            </Array>
          </mxGeometry>
        </mxCell>
        <mxCell id="3z7ieTu_SoPUE1_PNKwx-58" value="" style="endArrow=classic;startArrow=classic;html=1;rounded=0;" parent="1" edge="1">
          <mxGeometry width="50" height="50" relative="1" as="geometry">
            <mxPoint x="667.23" y="1050" as="sourcePoint" />
            <mxPoint x="567.23" y="1010" as="targetPoint" />
            <Array as="points">
              <mxPoint x="667.23" y="1030" />
              <mxPoint x="567.23" y="1030" />
            </Array>
          </mxGeometry>
        </mxCell>
        <mxCell id="3z7ieTu_SoPUE1_PNKwx-59" value="" style="endArrow=classic;startArrow=classic;html=1;rounded=0;" parent="1" edge="1">
          <mxGeometry width="50" height="50" relative="1" as="geometry">
            <mxPoint x="667.23" y="1050" as="sourcePoint" />
            <mxPoint x="667.23" y="1010" as="targetPoint" />
            <Array as="points">
              <mxPoint x="667.23" y="1030" />
            </Array>
          </mxGeometry>
        </mxCell>
        <mxCell id="3z7ieTu_SoPUE1_PNKwx-60" value="" style="endArrow=classic;startArrow=classic;html=1;rounded=0;" parent="1" edge="1">
          <mxGeometry width="50" height="50" relative="1" as="geometry">
            <mxPoint x="667.23" y="1050" as="sourcePoint" />
            <mxPoint x="767.23" y="1010" as="targetPoint" />
            <Array as="points">
              <mxPoint x="667.23" y="1030" />
              <mxPoint x="767.23" y="1030" />
            </Array>
          </mxGeometry>
        </mxCell>
        <mxCell id="3z7ieTu_SoPUE1_PNKwx-61" value="" style="endArrow=classic;startArrow=classic;html=1;rounded=0;" parent="1" edge="1">
          <mxGeometry width="50" height="50" relative="1" as="geometry">
            <mxPoint x="667.23" y="1050" as="sourcePoint" />
            <mxPoint x="875.78" y="1010" as="targetPoint" />
            <Array as="points">
              <mxPoint x="667.23" y="1030" />
              <mxPoint x="875.78" y="1030" />
            </Array>
          </mxGeometry>
        </mxCell>
        <mxCell id="dLS282lYkhtATNNYT-AO-1" value="Job&lt;div&gt;1&lt;/div&gt;" style="rounded=1;whiteSpace=wrap;html=1;fillColor=#f8cecc;strokeColor=#b85450;fontSize=8;" vertex="1" parent="1">
          <mxGeometry x="-640" y="1240" width="40" height="40" as="geometry" />
        </mxCell>
        <mxCell id="dLS282lYkhtATNNYT-AO-2" value="Job&lt;div&gt;&lt;span style=&quot;background-color: transparent; color: light-dark(rgb(0, 0, 0), rgb(255, 255, 255));&quot;&gt;2&lt;/span&gt;&lt;/div&gt;" style="rounded=1;whiteSpace=wrap;html=1;fillColor=#d5e8d4;strokeColor=#82b366;fontSize=8;" vertex="1" parent="1">
          <mxGeometry x="-640" y="1290" width="40" height="40" as="geometry" />
        </mxCell>
        <mxCell id="dLS282lYkhtATNNYT-AO-3" value="Job&lt;div&gt;3&lt;/div&gt;" style="rounded=1;whiteSpace=wrap;html=1;fillColor=#dae8fc;strokeColor=#6c8ebf;fontSize=8;" vertex="1" parent="1">
          <mxGeometry x="-640" y="1340" width="40" height="40" as="geometry" />
        </mxCell>
        <mxCell id="dLS282lYkhtATNNYT-AO-4" value="Job&lt;div&gt;1-1&lt;/div&gt;" style="rounded=1;whiteSpace=wrap;html=1;fillColor=#f8cecc;strokeColor=#b85450;fontSize=8;" vertex="1" parent="1">
          <mxGeometry x="-320" y="1240" width="40" height="40" as="geometry" />
        </mxCell>
        <mxCell id="dLS282lYkhtATNNYT-AO-5" value="Job&lt;div&gt;2-1&lt;/div&gt;" style="rounded=1;whiteSpace=wrap;html=1;fillColor=#d5e8d4;strokeColor=#82b366;fontSize=8;" vertex="1" parent="1">
          <mxGeometry x="-320" y="1290" width="40" height="40" as="geometry" />
        </mxCell>
        <mxCell id="dLS282lYkhtATNNYT-AO-6" value="Job&lt;div&gt;3-1&lt;/div&gt;" style="rounded=1;whiteSpace=wrap;html=1;fillColor=#dae8fc;strokeColor=#6c8ebf;fontSize=8;" vertex="1" parent="1">
          <mxGeometry x="-320" y="1340" width="40" height="40" as="geometry" />
        </mxCell>
        <mxCell id="dLS282lYkhtATNNYT-AO-8" value="Job&lt;div&gt;2-2&lt;/div&gt;" style="rounded=1;whiteSpace=wrap;html=1;fillColor=#d5e8d4;strokeColor=#82b366;fontSize=8;" vertex="1" parent="1">
          <mxGeometry x="-260" y="1290" width="40" height="40" as="geometry" />
        </mxCell>
        <mxCell id="dLS282lYkhtATNNYT-AO-9" value="Job&lt;div&gt;3-2&lt;/div&gt;" style="rounded=1;whiteSpace=wrap;html=1;fillColor=#dae8fc;strokeColor=#6c8ebf;fontSize=8;" vertex="1" parent="1">
          <mxGeometry x="-260" y="1340" width="40" height="40" as="geometry" />
        </mxCell>
        <mxCell id="dLS282lYkhtATNNYT-AO-11" value="Job&lt;div&gt;2-3&lt;/div&gt;" style="rounded=1;whiteSpace=wrap;html=1;fillColor=#d5e8d4;strokeColor=#82b366;fontSize=8;" vertex="1" parent="1">
          <mxGeometry x="-200" y="1290" width="40" height="40" as="geometry" />
        </mxCell>
        <mxCell id="dLS282lYkhtATNNYT-AO-13" value="" style="endArrow=none;html=1;rounded=0;" edge="1" parent="1">
          <mxGeometry width="50" height="50" relative="1" as="geometry">
            <mxPoint x="-330" y="1390" as="sourcePoint" />
            <mxPoint x="-330" y="1230" as="targetPoint" />
          </mxGeometry>
        </mxCell>
        <mxCell id="dLS282lYkhtATNNYT-AO-14" value="Machine&lt;div&gt;1&lt;/div&gt;" style="rounded=1;whiteSpace=wrap;html=1;fillColor=#ffe6cc;strokeColor=#d79b00;fontSize=8;" vertex="1" parent="1">
          <mxGeometry x="-800" y="1240" width="40" height="40" as="geometry" />
        </mxCell>
        <mxCell id="dLS282lYkhtATNNYT-AO-15" value="Machine&lt;div&gt;2&lt;/div&gt;" style="rounded=1;whiteSpace=wrap;html=1;fillColor=#ffe6cc;strokeColor=#d79b00;fontSize=8;" vertex="1" parent="1">
          <mxGeometry x="-800" y="1290" width="40" height="40" as="geometry" />
        </mxCell>
        <mxCell id="dLS282lYkhtATNNYT-AO-16" value="Machine&lt;div&gt;3&lt;/div&gt;" style="rounded=1;whiteSpace=wrap;html=1;fillColor=#ffe6cc;strokeColor=#d79b00;fontSize=8;" vertex="1" parent="1">
          <mxGeometry x="-800" y="1340" width="40" height="40" as="geometry" />
        </mxCell>
        <mxCell id="dLS282lYkhtATNNYT-AO-17" value="" style="endArrow=classic;html=1;rounded=0;" edge="1" parent="1">
          <mxGeometry width="50" height="50" relative="1" as="geometry">
            <mxPoint x="-660" y="1260" as="sourcePoint" />
            <mxPoint x="-740" y="1310" as="targetPoint" />
          </mxGeometry>
        </mxCell>
        <mxCell id="dLS282lYkhtATNNYT-AO-18" value="" style="endArrow=classic;html=1;rounded=0;" edge="1" parent="1">
          <mxGeometry width="50" height="50" relative="1" as="geometry">
            <mxPoint x="-660" y="1310" as="sourcePoint" />
            <mxPoint x="-740" y="1310" as="targetPoint" />
          </mxGeometry>
        </mxCell>
        <mxCell id="dLS282lYkhtATNNYT-AO-19" value="" style="endArrow=classic;html=1;rounded=0;" edge="1" parent="1">
          <mxGeometry width="50" height="50" relative="1" as="geometry">
            <mxPoint x="-660" y="1359.72" as="sourcePoint" />
            <mxPoint x="-740" y="1310" as="targetPoint" />
          </mxGeometry>
        </mxCell>
        <mxCell id="dLS282lYkhtATNNYT-AO-21" value="" style="endArrow=classic;html=1;rounded=0;" edge="1" parent="1">
          <mxGeometry width="50" height="50" relative="1" as="geometry">
            <mxPoint x="-660" y="1309.72" as="sourcePoint" />
            <mxPoint x="-740" y="1260" as="targetPoint" />
          </mxGeometry>
        </mxCell>
        <mxCell id="dLS282lYkhtATNNYT-AO-22" value="" style="endArrow=classic;html=1;rounded=0;" edge="1" parent="1">
          <mxGeometry width="50" height="50" relative="1" as="geometry">
            <mxPoint x="-660" y="1360" as="sourcePoint" />
            <mxPoint x="-740" y="1360" as="targetPoint" />
          </mxGeometry>
        </mxCell>
        <mxCell id="dLS282lYkhtATNNYT-AO-23" value="" style="endArrow=classic;html=1;rounded=0;" edge="1" parent="1">
          <mxGeometry width="50" height="50" relative="1" as="geometry">
            <mxPoint x="-660" y="1259.72" as="sourcePoint" />
            <mxPoint x="-740" y="1259.72" as="targetPoint" />
          </mxGeometry>
        </mxCell>
        <mxCell id="dLS282lYkhtATNNYT-AO-24" value="" style="endArrow=classic;html=1;rounded=0;" edge="1" parent="1">
          <mxGeometry width="50" height="50" relative="1" as="geometry">
            <mxPoint x="-660" y="1310" as="sourcePoint" />
            <mxPoint x="-740" y="1360" as="targetPoint" />
          </mxGeometry>
        </mxCell>
        <mxCell id="dLS282lYkhtATNNYT-AO-25" value="" style="endArrow=none;html=1;rounded=0;" edge="1" parent="1">
          <mxGeometry width="50" height="50" relative="1" as="geometry">
            <mxPoint x="-650" y="1390" as="sourcePoint" />
            <mxPoint x="-650" y="1230" as="targetPoint" />
          </mxGeometry>
        </mxCell>
        <mxCell id="dLS282lYkhtATNNYT-AO-26" value="Machine&lt;div&gt;1&lt;/div&gt;" style="rounded=1;whiteSpace=wrap;html=1;fillColor=#ffe6cc;strokeColor=#d79b00;fontSize=8;" vertex="1" parent="1">
          <mxGeometry x="-480" y="1240" width="40" height="40" as="geometry" />
        </mxCell>
        <mxCell id="dLS282lYkhtATNNYT-AO-27" value="Machine&lt;div&gt;2&lt;/div&gt;" style="rounded=1;whiteSpace=wrap;html=1;fillColor=#ffe6cc;strokeColor=#d79b00;fontSize=8;" vertex="1" parent="1">
          <mxGeometry x="-480" y="1290" width="40" height="40" as="geometry" />
        </mxCell>
        <mxCell id="dLS282lYkhtATNNYT-AO-28" value="Machine&lt;div&gt;3&lt;/div&gt;" style="rounded=1;whiteSpace=wrap;html=1;fillColor=#ffe6cc;strokeColor=#d79b00;fontSize=8;" vertex="1" parent="1">
          <mxGeometry x="-480" y="1340" width="40" height="40" as="geometry" />
        </mxCell>
        <mxCell id="dLS282lYkhtATNNYT-AO-29" value="" style="endArrow=classic;html=1;rounded=0;" edge="1" parent="1">
          <mxGeometry width="50" height="50" relative="1" as="geometry">
            <mxPoint x="-340" y="1260" as="sourcePoint" />
            <mxPoint x="-420" y="1310" as="targetPoint" />
          </mxGeometry>
        </mxCell>
        <mxCell id="dLS282lYkhtATNNYT-AO-30" value="" style="endArrow=classic;html=1;rounded=0;" edge="1" parent="1">
          <mxGeometry width="50" height="50" relative="1" as="geometry">
            <mxPoint x="-340" y="1310" as="sourcePoint" />
            <mxPoint x="-420" y="1310" as="targetPoint" />
          </mxGeometry>
        </mxCell>
        <mxCell id="dLS282lYkhtATNNYT-AO-31" value="" style="endArrow=classic;html=1;rounded=0;" edge="1" parent="1">
          <mxGeometry width="50" height="50" relative="1" as="geometry">
            <mxPoint x="-340" y="1359.72" as="sourcePoint" />
            <mxPoint x="-420" y="1310" as="targetPoint" />
          </mxGeometry>
        </mxCell>
        <mxCell id="dLS282lYkhtATNNYT-AO-32" value="" style="endArrow=classic;html=1;rounded=0;" edge="1" parent="1">
          <mxGeometry width="50" height="50" relative="1" as="geometry">
            <mxPoint x="-340" y="1309.72" as="sourcePoint" />
            <mxPoint x="-420" y="1260" as="targetPoint" />
          </mxGeometry>
        </mxCell>
        <mxCell id="dLS282lYkhtATNNYT-AO-33" value="" style="endArrow=classic;html=1;rounded=0;" edge="1" parent="1">
          <mxGeometry width="50" height="50" relative="1" as="geometry">
            <mxPoint x="-340" y="1360" as="sourcePoint" />
            <mxPoint x="-420" y="1360" as="targetPoint" />
          </mxGeometry>
        </mxCell>
        <mxCell id="dLS282lYkhtATNNYT-AO-34" value="" style="endArrow=classic;html=1;rounded=0;" edge="1" parent="1">
          <mxGeometry width="50" height="50" relative="1" as="geometry">
            <mxPoint x="-340" y="1259.72" as="sourcePoint" />
            <mxPoint x="-420" y="1259.72" as="targetPoint" />
          </mxGeometry>
        </mxCell>
        <mxCell id="dLS282lYkhtATNNYT-AO-35" value="" style="endArrow=classic;html=1;rounded=0;" edge="1" parent="1">
          <mxGeometry width="50" height="50" relative="1" as="geometry">
            <mxPoint x="-340" y="1310" as="sourcePoint" />
            <mxPoint x="-420" y="1360" as="targetPoint" />
          </mxGeometry>
        </mxCell>
        <mxCell id="dLS282lYkhtATNNYT-AO-36" value="process" style="text;html=1;align=center;verticalAlign=middle;whiteSpace=wrap;rounded=0;fontSize=8;" vertex="1" parent="1">
          <mxGeometry x="-730" y="1230" width="60" height="30" as="geometry" />
        </mxCell>
        <mxCell id="dLS282lYkhtATNNYT-AO-37" value="&lt;font style=&quot;font-size: 8px;&quot;&gt;process&lt;/font&gt;" style="text;html=1;align=center;verticalAlign=middle;whiteSpace=wrap;rounded=0;" vertex="1" parent="1">
          <mxGeometry x="-410" y="1230" width="60" height="30" as="geometry" />
        </mxCell>
        <mxCell id="dLS282lYkhtATNNYT-AO-38" value="&lt;font style=&quot;font-size: 8px;&quot;&gt;Job Queue&lt;/font&gt;" style="text;html=1;align=center;verticalAlign=middle;whiteSpace=wrap;rounded=0;" vertex="1" parent="1">
          <mxGeometry x="-650" y="1210" width="60" height="30" as="geometry" />
        </mxCell>
        <mxCell id="dLS282lYkhtATNNYT-AO-39" value="&lt;font style=&quot;font-size: 8px;&quot;&gt;Job Queue&lt;/font&gt;" style="text;html=1;align=center;verticalAlign=middle;whiteSpace=wrap;rounded=0;" vertex="1" parent="1">
          <mxGeometry x="-270" y="1210" width="60" height="30" as="geometry" />
        </mxCell>
        <mxCell id="dLS282lYkhtATNNYT-AO-40" value="VS" style="text;html=1;align=center;verticalAlign=middle;whiteSpace=wrap;rounded=0;" vertex="1" parent="1">
          <mxGeometry x="-570" y="1290" width="60" height="30" as="geometry" />
        </mxCell>
        <mxCell id="dLS282lYkhtATNNYT-AO-41" value="" style="group" vertex="1" connectable="0" parent="1">
          <mxGeometry x="461.5" y="1680" width="180" height="120" as="geometry" />
        </mxCell>
        <mxCell id="dLS282lYkhtATNNYT-AO-42" value="" style="shape=image;verticalLabelPosition=bottom;labelBackgroundColor=default;verticalAlign=top;aspect=fixed;imageAspect=0;image=data:image/png,iVBORw0KGgoAAAANSUhEUgAAAT4AAACfCAMAAABX0UX9AAAAflBMVEX///8AAAB0dHQ6OjqJiYmAgICoqKiQkJDT09PBwcF9fX3ExMR3d3d6enptbW319fXt7e3m5uYpKSkLCwv4+PixsbHKysrf39+bm5tERES7u7tbW1vq6uqjo6OGhoY0NDRNTU0VFRUlJSUcHBxoaGg+Pj6Xl5dSUlJgYGAYGBjpHaZbAAAHFklEQVR4nO2aiXaiShCGKSUsGkWRfRF3nfd/wcvSS6Ekc8drRnPzf+cktgh081PVVdVgGAAAAAAAAAAAAAAAAAAAAAAAAAAAAAAAAAAAAAAAAAAAAAAAAAAAAAAAAAAAAAD8BQIvkE3Pe+ZAviGF6VfjyjcLw3Bzfzz2N+Gzh/SNmFRuY3qBm76nb3GzpbBX0ZMH9W3wS9lK0t1CNL1x+cHuoEc1lS1zbhRUyG+b7Dnj+V4ktmxl5/rfcqV+oc9CyMJxXSf4ZIcvJF78fp+/BclG0LXCmdyQrT86JjitiLb13zn+0rEN4xA96b7d4pqy9SactVLuu7rdvSUkP2wNIJ6Q+cE+X0hG9DLmZ6uZbys+3Te5JR323hnpWXG5Sr9oYJ9Qvs6sPJHul6k5cC8bh+XQEWviHhtYXzOub8JoZFtO03h35Ka8US1wE9t3Bg6IaGjrz+S0GuWONV/VOd5ReeopM5b5znan+8PuNjTQhwHlx1GdRORNyBmrrVliVo2FWYmx2F1Xb9nrRL1nkzZTcHZoml76S22eUltweK2w1VXxlr4PnCg4FfzrMmlP09yCsCKSVU3TrthUmTT2ntQbad2LUdml3rQ78S2beouuw0MxfXgndisjGU+iZsThmPU77vf7IESGd2gvVgcMw+2CyKpzXOod49FgLVy98W+zvPn/ZhvL7ThbxhZt6q/Fr9Rt2jpS1wVORBc3jqcbFo3K+lKdZZztV0qbI1nxMg73JASUuix4AmMeRGO9Nop9lcWir8Xu2ParvetBSGHy9trT6Tqt7/H+EJ6a+1hIncpe7RsNlyJuT2Rqk6G17YgMJyC7znVd0VaZIi0SGYZmKsWknYxMx41oHOSdtSbd51iY0oIPxp6LhmnGQuemLz2G3h3+7ziyP+O0j70JzaJ2MLHl11VwSTJpCXb8oKRvjAqWCtYStx9mqs4xpUi1tdJ09pWBCXHrg9VpFsIkl3Qdv34jX6oOiFi/0YMn7URfcUG/Ip2LjpfvNNP79eRbH4dPZrLsedRNjybptJH0SoSh3J82+pg561By7GaV8OaOfS6f3euXtV3jkehEz9vVDhrn4ltRK7Hc64h74Td/fhk+WcGmIeGRa+YtG5btpHI24FZVDkxNZtfXn8pnTvTGnN2VczI89DuZy9Evuuv1xVjsVrmN6uzA5TscjGFSVbRMxeWu2dBHTMqDnPx4/u3qyKWwOkuPb/L038jHcoPZiI2ByfoAVLUrrCAUlyWuXuUJvcp3nqvmiDo6p58qGzkIS+PyzZh86jK4LNOB5YnEFye81u/fy/fG5Juw9gOQay0bKeO29T9TZkgrMW30fMfUTuYVixpPTil6ShPW+h/kW2RvTRYg+5rQpSfgS8gndHGVOzpV88+XX+Oq/eiv+pU3E5GUzxZ2mck97pUvKPd0TqLCyPRQDrRiee9ryGe3c/hWD6E81CFAfz209tRP9G7zPimfvJZclgt3ypfQWdhx6OvfvXJLMxmdXkM+o4nqDo8F9sFn1Vcbi0f9J0a3VYfKB7pgE6hU4T75Ljoec/lqIl929SLyNYmpOWUbMurFidoNJ/OrY47XNa+Srwse2uPuks9iilzJ16zTdke8iHyGt7U2OhePz3PD2bLsaOQeb9biw+vkXWej7cWdlbXeJR8xY7+Rzzh2rqLlY77yBPnqeo2SztkWYXpuhmtdtjPhn1E6tF56/XRDy3eaN76rDOIe+TyeSt/KV3bZoZQv4HufniGfsXVzGqfH1SYpjGa4YWhEk90uTXe+ORsqc7KrElTL16xwhbp4u0e+xefyWX35eB0WrKQ6f1W+doji9aCmXXbZcvuakD24ODWi3uIeu4TcMtjLMfc5rz6bI/I+Nr9dOgtT8l20IvvqKfLl7HFQk+jxUJIPPioycmL7vLGiPCKDzYx3yTdX1mvTpE08HVJ3JBK2qeSLZKW9IKt8ivNabK5u5NqwFcgPFqfqK9u07xQZ8Yl4pmNQzlYUuHzvrN4clk/05dG5fVAVUm5E3VpPSOPOCywZV5R89Z1szhFYtcSlzMD+qnzeVrcbKdnyVPbhI/DlrFlYrf/S/hPXki8K2axcWbNTTeR2Ll8k5znvXBdre9rUv8nHL4FNtBv7tJNzCZ8h6r19SmvJQ6mOzSydr76sH7tkIM+qzc/bGyXLWz5dX1xG7jS+3iH+yF7/BC/KouvSpojcqBjcO3Cy6KnvHOy0EdgmC3bpny8vnq6T7B9AsFdTyYLU8y1vfMezqeHnSP933qusccPFaRsf8ja4Lc3tHe8SOI/w3W9IYVc1aTMjO5fm3ebzXS/hpD/4hVQdBu59sz77ocb3GBy8O3QvlpXN6XXeuvtu2Dt/NFzhAQAAAAAAAAAAAAAAAAAAAAAAAAAAAAAAAAAAAAAAAAAAAAAAAAAAAAAAAADgD/gHsQ1aksabXB0AAAAASUVORK5CYII=;" vertex="1" parent="dLS282lYkhtATNNYT-AO-41">
          <mxGeometry width="180" height="90" as="geometry" />
        </mxCell>
        <mxCell id="dLS282lYkhtATNNYT-AO-43" value="RJSPEnv" style="text;html=1;align=center;verticalAlign=middle;whiteSpace=wrap;rounded=0;fontSize=15;" vertex="1" parent="dLS282lYkhtATNNYT-AO-41">
          <mxGeometry x="60" y="90" width="60" height="30" as="geometry" />
        </mxCell>
        <mxCell id="dLS282lYkhtATNNYT-AO-44" value="" style="group" vertex="1" connectable="0" parent="1">
          <mxGeometry x="727.23" y="1654" width="160.58999999999992" height="170" as="geometry" />
        </mxCell>
        <mxCell id="dLS282lYkhtATNNYT-AO-45" value="" style="shape=image;verticalLabelPosition=bottom;labelBackgroundColor=default;verticalAlign=top;aspect=fixed;imageAspect=0;image=https://stable-baselines3.readthedocs.io/en/master/_static/logo.png;" vertex="1" parent="dLS282lYkhtATNNYT-AO-44">
          <mxGeometry width="160.59" height="140" as="geometry" />
        </mxCell>
        <mxCell id="dLS282lYkhtATNNYT-AO-46" value="Stable-Baselines3&lt;div style=&quot;font-size: 15px;&quot;&gt;Agent&lt;/div&gt;" style="text;html=1;align=center;verticalAlign=middle;whiteSpace=wrap;rounded=0;fontSize=15;" vertex="1" parent="dLS282lYkhtATNNYT-AO-44">
          <mxGeometry x="5.510000000000105" y="140" width="149.56" height="30" as="geometry" />
        </mxCell>
        <mxCell id="dLS282lYkhtATNNYT-AO-47" value="" style="endArrow=classic;startArrow=classic;html=1;rounded=0;exitX=1;exitY=0.5;exitDx=0;exitDy=0;" edge="1" parent="1" source="dLS282lYkhtATNNYT-AO-42" target="dLS282lYkhtATNNYT-AO-45">
          <mxGeometry width="50" height="50" relative="1" as="geometry">
            <mxPoint x="617.23" y="1820" as="sourcePoint" />
            <mxPoint x="617.23" y="1890" as="targetPoint" />
          </mxGeometry>
        </mxCell>
        <mxCell id="dLS282lYkhtATNNYT-AO-48" value="" style="group" vertex="1" connectable="0" parent="1">
          <mxGeometry x="294.23" y="1685.5" width="80" height="109" as="geometry" />
        </mxCell>
        <mxCell id="dLS282lYkhtATNNYT-AO-49" value="" style="shape=mxgraph.sap.icon;labelPosition=center;verticalLabelPosition=bottom;align=center;verticalAlign=top;strokeWidth=1;strokeColor=#D5DADD;fillColor=#EDEFF0;gradientColor=#FCFCFC;gradientDirection=west;aspect=fixed;SAPIcon=SAP_Job_Scheduling_service" vertex="1" parent="dLS282lYkhtATNNYT-AO-48">
          <mxGeometry width="80" height="80" as="geometry" />
        </mxCell>
        <mxCell id="dLS282lYkhtATNNYT-AO-50" value="Scheduler" style="text;html=1;align=center;verticalAlign=middle;whiteSpace=wrap;rounded=0;fontSize=15;" vertex="1" parent="dLS282lYkhtATNNYT-AO-48">
          <mxGeometry x="10" y="79" width="60" height="30" as="geometry" />
        </mxCell>
        <mxCell id="dLS282lYkhtATNNYT-AO-51" value="" style="endArrow=classic;startArrow=classic;html=1;rounded=0;" edge="1" parent="1">
          <mxGeometry width="50" height="50" relative="1" as="geometry">
            <mxPoint x="385.23" y="1740" as="sourcePoint" />
            <mxPoint x="445.23" y="1740" as="targetPoint" />
          </mxGeometry>
        </mxCell>
        <mxCell id="dLS282lYkhtATNNYT-AO-52" value="" style="shape=image;verticalLabelPosition=bottom;labelBackgroundColor=default;verticalAlign=top;aspect=fixed;imageAspect=0;editableCssRules=.*;image=data:image/svg+xml,PHN2ZyB4bWxucz0iaHR0cDovL3d3dy53My5vcmcvMjAwMC9zdmciIHZpZXdCb3g9IjAgMCAzODQgNTEyIiB3aWR0aD0iMzg0IiBoZWlnaHQ9IjUxMiI+PHBhdGggZD0iTTY0IDBDMjguNyAwIDAgMjguNyAwIDY0TDAgNDQ4YzAgMzUuMyAyOC43IDY0IDY0IDY0bDI1NiAwYzM1LjMgMCA2NC0yOC43IDY0LTY0bDAtMjg4LTEyOCAwYy0xNy43IDAtMzItMTQuMy0zMi0zMkwyMjQgMCA2NCAwek0yNTYgMGwwIDEyOCAxMjggMEwyNTYgMHpNODAgNjRsNjQgMGM4LjggMCAxNiA3LjIgMTYgMTZzLTcuMiAxNi0xNiAxNkw4MCA5NmMtOC44IDAtMTYtNy4yLTE2LTE2czcuMi0xNiAxNi0xNnptMCA2NGw2NCAwYzguOCAwIDE2IDcuMiAxNiAxNnMtNy4yIDE2LTE2IDE2bC02NCAwYy04LjggMC0xNi03LjItMTYtMTZzNy4yLTE2IDE2LTE2em01NC4yIDI1My44Yy02LjEgMjAuMy0yNC44IDM0LjItNDYgMzQuMkw4MCA0MTZjLTguOCAwLTE2LTcuMi0xNi0xNnM3LjItMTYgMTYtMTZsOC4yIDBjNy4xIDAgMTMuMy00LjYgMTUuMy0xMS40bDE0LjktNDkuNWMzLjQtMTEuMyAxMy44LTE5LjEgMjUuNi0xOS4xczIyLjIgNy43IDI1LjYgMTkuMWwxMS42IDM4LjZjNy40LTYuMiAxNi44LTkuNyAyNi44LTkuN2MxNS45IDAgMzAuNCA5IDM3LjUgMjMuMmw0LjQgOC44IDU0LjEgMGM4LjggMCAxNiA3LjIgMTYgMTZzLTcuMiAxNi0xNiAxNmwtNjQgMGMtNi4xIDAtMTEuNi0zLjQtMTQuMy04LjhsLTguOC0xNy43Yy0xLjctMy40LTUuMS01LjUtOC44LTUuNXMtNy4yIDIuMS04LjggNS41bC04LjggMTcuN2MtMi45IDUuOS05LjIgOS40LTE1LjcgOC44cy0xMi4xLTUuMS0xMy45LTExLjNMMTQ0IDM0OWwtOS44IDMyLjh6Ii8+PC9zdmc+;" vertex="1" parent="1">
          <mxGeometry x="324.38" y="1542" width="31.5" height="42" as="geometry" />
        </mxCell>
        <mxCell id="dLS282lYkhtATNNYT-AO-53" value="Contract&lt;div&gt;Generator&lt;/div&gt;" style="text;html=1;align=center;verticalAlign=middle;whiteSpace=wrap;rounded=0;fontSize=15;" vertex="1" parent="1">
          <mxGeometry x="270" y="1592" width="140.25" height="26" as="geometry" />
        </mxCell>
        <mxCell id="dLS282lYkhtATNNYT-AO-54" value="" style="shape=image;verticalLabelPosition=bottom;labelBackgroundColor=default;verticalAlign=top;aspect=fixed;imageAspect=0;editableCssRules=.*;image=data:image/svg+xml,PHN2ZyB4bWxucz0iaHR0cDovL3d3dy53My5vcmcvMjAwMC9zdmciIHZpZXdCb3g9IjAgNjQgNjQwIDM4NCIgd2lkdGg9IjY0MCIgaGVpZ2h0PSIzODQiPjxwYXRoIGQ9Ik0xOTIgNjRDODYgNjQgMCAxNTAgMCAyNTZTODYgNDQ4IDE5MiA0NDhsMjU2IDBjMTA2IDAgMTkyLTg2IDE5Mi0xOTJzLTg2LTE5Mi0xOTItMTkyTDE5MiA2NHpNNDk2IDE2OGE0MCA0MCAwIDEgMSAwIDgwIDQwIDQwIDAgMSAxIDAtODB6TTM5MiAzMDRhNDAgNDAgMCAxIDEgODAgMCA0MCA0MCAwIDEgMSAtODAgMHpNMTY4IDIwMGMwLTEzLjMgMTAuNy0yNCAyNC0yNHMyNCAxMC43IDI0IDI0bDAgMzIgMzIgMGMxMy4zIDAgMjQgMTAuNyAyNCAyNHMtMTAuNyAyNC0yNCAyNGwtMzIgMCAwIDMyYzAgMTMuMy0xMC43IDI0LTI0IDI0cy0yNC0xMC43LTI0LTI0bDAtMzItMzIgMGMtMTMuMyAwLTI0LTEwLjctMjQtMjRzMTAuNy0yNCAyNC0yNGwzMiAwIDAtMzJ6Ii8+PC9zdmc+;" vertex="1" parent="1">
          <mxGeometry x="415" y="1551" width="60" height="36" as="geometry" />
        </mxCell>
        <mxCell id="dLS282lYkhtATNNYT-AO-55" value="Action&lt;div&gt;Handler&lt;/div&gt;" style="text;html=1;align=center;verticalAlign=middle;whiteSpace=wrap;rounded=0;fontSize=15;" vertex="1" parent="1">
          <mxGeometry x="390" y="1598" width="110" height="20" as="geometry" />
        </mxCell>
        <mxCell id="dLS282lYkhtATNNYT-AO-56" value="" style="shape=image;verticalLabelPosition=bottom;labelBackgroundColor=default;verticalAlign=top;aspect=fixed;imageAspect=0;editableCssRules=.*;image=data:image/svg+xml,PHN2ZyB4bWxucz0iaHR0cDovL3d3dy53My5vcmcvMjAwMC9zdmciIHZpZXdCb3g9IjAuMDI1MDAwMDk1MzY3NDMxNjQgMzIgNTc2LjA0OTkyNjc1NzgxMjUgNDQ4IiB3aWR0aD0iNTc2LjA0OTkyNjc1NzgxMjUiIGhlaWdodD0iNDQ4Ij48cGF0aCBkPSJNMjg4IDMyYy04MC44IDAtMTQ1LjUgMzYuOC0xOTIuNiA4MC42QzQ4LjYgMTU2IDE3LjMgMjA4IDIuNSAyNDMuN2MtMy4zIDcuOS0zLjMgMTYuNyAwIDI0LjZDMTcuMyAzMDQgNDguNiAzNTYgOTUuNCAzOTkuNEMxNDIuNSA0NDMuMiAyMDcuMiA0ODAgMjg4IDQ4MHMxNDUuNS0zNi44IDE5Mi42LTgwLjZjNDYuOC00My41IDc4LjEtOTUuNCA5My0xMzEuMWMzLjMtNy45IDMuMy0xNi43IDAtMjQuNmMtMTQuOS0zNS43LTQ2LjItODcuNy05My0xMzEuMUM0MzMuNSA2OC44IDM2OC44IDMyIDI4OCAzMnpNMTQ0IDI1NmExNDQgMTQ0IDAgMSAxIDI4OCAwIDE0NCAxNDQgMCAxIDEgLTI4OCAwem0xNDQtNjRjMCAzNS4zLTI4LjcgNjQtNjQgNjRjLTcuMSAwLTEzLjktMS4yLTIwLjMtMy4zYy01LjUtMS44LTExLjkgMS42LTExLjcgNy40Yy4zIDYuOSAxLjMgMTMuOCAzLjIgMjAuN2MxMy43IDUxLjIgNjYuNCA4MS42IDExNy42IDY3LjlzODEuNi02Ni40IDY3LjktMTE3LjZjLTExLjEtNDEuNS00Ny44LTY5LjQtODguNi03MS4xYy01LjgtLjItOS4yIDYuMS03LjQgMTEuN2MyLjEgNi40IDMuMyAxMy4yIDMuMyAyMC4zeiIvPjwvc3ZnPg==;" vertex="1" parent="1">
          <mxGeometry x="521.6899999999999" y="1553" width="43.71" height="34" as="geometry" />
        </mxCell>
        <mxCell id="dLS282lYkhtATNNYT-AO-57" value="Observation&lt;div&gt;Handler&lt;/div&gt;" style="text;html=1;align=center;verticalAlign=middle;whiteSpace=wrap;rounded=0;fontSize=15;" vertex="1" parent="1">
          <mxGeometry x="468.54999999999995" y="1595" width="150" height="20" as="geometry" />
        </mxCell>
        <mxCell id="dLS282lYkhtATNNYT-AO-58" value="" style="shape=image;verticalLabelPosition=bottom;labelBackgroundColor=default;verticalAlign=top;aspect=fixed;imageAspect=0;editableCssRules=.*;image=data:image/svg+xml,PHN2ZyB4bWxucz0iaHR0cDovL3d3dy53My5vcmcvMjAwMC9zdmciIHZpZXdCb3g9IjAgMCA1NzYgNTEyIiB3aWR0aD0iNTc2IiBoZWlnaHQ9IjUxMiI+PHBhdGggZD0iTTQwMCAwTDE3NiAwYy0yNi41IDAtNDguMSAyMS44LTQ3LjEgNDguMmMuMiA1LjMgLjQgMTAuNiAuNyAxNS44TDI0IDY0QzEwLjcgNjQgMCA3NC43IDAgODhjMCA5Mi42IDMzLjUgMTU3IDc4LjUgMjAwLjdjNDQuMyA0My4xIDk4LjMgNjQuOCAxMzguMSA3NS44YzIzLjQgNi41IDM5LjQgMjYgMzkuNCA0NS42YzAgMjAuOS0xNyAzNy45LTM3LjkgMzcuOUwxOTIgNDQ4Yy0xNy43IDAtMzIgMTQuMy0zMiAzMnMxNC4zIDMyIDMyIDMybDE5MiAwYzE3LjcgMCAzMi0xNC4zIDMyLTMycy0xNC4zLTMyLTMyLTMybC0yNi4xIDBDMzM3IDQ0OCAzMjAgNDMxIDMyMCA0MTAuMWMwLTE5LjYgMTUuOS0zOS4yIDM5LjQtNDUuNmMzOS45LTExIDkzLjktMzIuNyAxMzguMi03NS44QzU0Mi41IDI0NSA1NzYgMTgwLjYgNTc2IDg4YzAtMTMuMy0xMC43LTI0LTI0LTI0TDQ0Ni40IDY0Yy4zLTUuMiAuNS0xMC40IC43LTE1LjhDNDQ4LjEgMjEuOCA0MjYuNSAwIDQwMCAwek00OC45IDExMmw4NC40IDBjOS4xIDkwLjEgMjkuMiAxNTAuMyA1MS45IDE5MC42Yy0yNC45LTExLTUwLjgtMjYuNS03My4yLTQ4LjNjLTMyLTMxLjEtNTgtNzYtNjMtMTQyLjN6TTQ2NC4xIDI1NC4zYy0yMi40IDIxLjgtNDguMyAzNy4zLTczLjIgNDguM2MyMi43LTQwLjMgNDIuOC0xMDAuNSA1MS45LTE5MC42bDg0LjQgMGMtNS4xIDY2LjMtMzEuMSAxMTEuMi02MyAxNDIuM3oiLz48L3N2Zz4=;" vertex="1" parent="1">
          <mxGeometry x="615.75" y="1540" width="58.5" height="52" as="geometry" />
        </mxCell>
        <mxCell id="dLS282lYkhtATNNYT-AO-59" value="Reward&lt;div&gt;Handler&lt;/div&gt;" style="text;html=1;align=center;verticalAlign=middle;whiteSpace=wrap;rounded=0;fontSize=15;" vertex="1" parent="1">
          <mxGeometry x="570" y="1598" width="150" height="20" as="geometry" />
        </mxCell>
        <mxCell id="dLS282lYkhtATNNYT-AO-60" value="" style="shape=image;verticalLabelPosition=bottom;labelBackgroundColor=default;verticalAlign=top;aspect=fixed;imageAspect=0;editableCssRules=.*;image=data:image/svg+xml,PHN2ZyB4bWxucz0iaHR0cDovL3d3dy53My5vcmcvMjAwMC9zdmciIHZpZXdCb3g9IjAgMzIgNTEyIDQ0OCIgd2lkdGg9IjUxMiIgaGVpZ2h0PSI0NDgiPjxwYXRoIGQ9Ik0zMiAzMmMxNy43IDAgMzIgMTQuMyAzMiAzMmwwIDMzNmMwIDguOCA3LjIgMTYgMTYgMTZsNDAwIDBjMTcuNyAwIDMyIDE0LjMgMzIgMzJzLTE0LjMgMzItMzIgMzJMODAgNDgwYy00NC4yIDAtODAtMzUuOC04MC04MEwwIDY0QzAgNDYuMyAxNC4zIDMyIDMyIDMyem05NiA5NmMwLTE3LjcgMTQuMy0zMiAzMi0zMmw5NiAwYzE3LjcgMCAzMiAxNC4zIDMyIDMycy0xNC4zIDMyLTMyIDMybC05NiAwYy0xNy43IDAtMzItMTQuMy0zMi0zMnptOTYgNjRsMTI4IDBjMTcuNyAwIDMyIDE0LjMgMzIgMzJzLTE0LjMgMzItMzIgMzJsLTEyOCAwYy0xNy43IDAtMzItMTQuMy0zMi0zMnMxNC4zLTMyIDMyLTMyem0xNjAgOTZsNjQgMGMxNy43IDAgMzIgMTQuMyAzMiAzMnMtMTQuMyAzMi0zMiAzMmwtNjQgMGMtMTcuNyAwLTMyLTE0LjMtMzItMzJzMTQuMy0zMiAzMi0zMnoiLz48L3N2Zz4=;" vertex="1" parent="1">
          <mxGeometry x="730" y="1544.5" width="56" height="49" as="geometry" />
        </mxCell>
        <mxCell id="dLS282lYkhtATNNYT-AO-61" value="Renderer" style="text;html=1;align=center;verticalAlign=middle;whiteSpace=wrap;rounded=0;fontSize=15;" vertex="1" parent="1">
          <mxGeometry x="683" y="1598" width="150" height="20" as="geometry" />
        </mxCell>
        <mxCell id="dLS282lYkhtATNNYT-AO-62" value="" style="endArrow=classic;startArrow=classic;html=1;rounded=0;" edge="1" parent="1">
          <mxGeometry width="50" height="50" relative="1" as="geometry">
            <mxPoint x="547.23" y="1670" as="sourcePoint" />
            <mxPoint x="337.23" y="1630" as="targetPoint" />
            <Array as="points">
              <mxPoint x="547.23" y="1650" />
              <mxPoint x="337.23" y="1650" />
            </Array>
          </mxGeometry>
        </mxCell>
        <mxCell id="dLS282lYkhtATNNYT-AO-63" value="" style="endArrow=classic;startArrow=classic;html=1;rounded=0;" edge="1" parent="1">
          <mxGeometry width="50" height="50" relative="1" as="geometry">
            <mxPoint x="547.23" y="1670" as="sourcePoint" />
            <mxPoint x="447.23" y="1630" as="targetPoint" />
            <Array as="points">
              <mxPoint x="547.23" y="1650" />
              <mxPoint x="447.23" y="1650" />
            </Array>
          </mxGeometry>
        </mxCell>
        <mxCell id="dLS282lYkhtATNNYT-AO-64" value="" style="endArrow=classic;startArrow=classic;html=1;rounded=0;" edge="1" parent="1">
          <mxGeometry width="50" height="50" relative="1" as="geometry">
            <mxPoint x="547.23" y="1670" as="sourcePoint" />
            <mxPoint x="547.23" y="1630" as="targetPoint" />
            <Array as="points">
              <mxPoint x="547.23" y="1650" />
            </Array>
          </mxGeometry>
        </mxCell>
        <mxCell id="dLS282lYkhtATNNYT-AO-65" value="" style="endArrow=classic;startArrow=classic;html=1;rounded=0;" edge="1" parent="1">
          <mxGeometry width="50" height="50" relative="1" as="geometry">
            <mxPoint x="547.23" y="1670" as="sourcePoint" />
            <mxPoint x="647.23" y="1630" as="targetPoint" />
            <Array as="points">
              <mxPoint x="547.23" y="1650" />
              <mxPoint x="647.23" y="1650" />
            </Array>
          </mxGeometry>
        </mxCell>
        <mxCell id="dLS282lYkhtATNNYT-AO-66" value="" style="endArrow=classic;startArrow=classic;html=1;rounded=0;" edge="1" parent="1">
          <mxGeometry width="50" height="50" relative="1" as="geometry">
            <mxPoint x="547.23" y="1670" as="sourcePoint" />
            <mxPoint x="755.78" y="1630" as="targetPoint" />
            <Array as="points">
              <mxPoint x="547.23" y="1650" />
              <mxPoint x="755.78" y="1650" />
            </Array>
          </mxGeometry>
        </mxCell>
      </root>
    </mxGraphModel>
  </diagram>
</mxfile>
